PathFileType	4	(X/Y/Z)	Patient4_TMGait_0pt3_01_right_20.trc.trc
DataRate	CameraRate	NumFrames	NumMarkers	Units	OrigDataRate	OrigDataStartFrame	OrigNumFrames
51.660516605166	51.660516605166	4	33	mm	51.660516605166	53	       141
Frame#	Time	Sacral			L.Shoulder			Chest			R.Shoulder			Neck			R.ASIS			L.ASIS			R.Thigh.Superior			R.Thigh.Lateral			R.Thigh.Inferior			R.Patella			L.Thigh.Superior			L.Thigh.Lateral			L.Thigh.Inferior			L.Patella			L.Shank.Superior			L.Shank.Lateral			L.Shank.Inferior			R.Shank.Superior			R.Shank.Lateral			R.Shank.Inferior			R.Heel			R.Midfoot.Superior			R.Midfoot.Lateral			R.Toe			L.Heel			L.Midfoot.Lateral			L.Midfoot.Superior			L.Toe			L.Elbow			L.Wrist			R.Elbow			R.Wrist			
		X1	Y1	Z1	X2	Y2	Z2	X3	Y3	Z3	X4	Y4	Z4	X5	Y5	Z5	X6	Y6	Z6	X7	Y7	Z7	X8	Y8	Z8	X9	Y9	Z9	X10	Y10	Z10	X11	Y11	Z11	X12	Y12	Z12	X13	Y13	Z13	X14	Y14	Z14	X15	Y15	Z15	X16	Y16	Z16	X17	Y17	Z17	X18	Y18	Z18	X19	Y19	Z19	X20	Y20	Z20	X21	Y21	Z21	X22	Y22	Z22	X23	Y23	Z23	X24	Y24	Z24	X25	Y25	Z25	X26	Y26	Z26	X27	Y27	Z27	X28	Y28	Z28	X29	Y29	Z29	X30	Y30	Z30	X31	Y31	Z31	X32	Y32	Z32	X33	Y33	Z33	

53	37.456571428571	733.105218452368	992.571494282190	597.072139003650	917.510294689946	1424.002491601561	417.659078976295	1017.021657610345	1353.281490582012	579.733794651939	932.345293638311	1426.153735313637	752.991373430930	902.179055626556	1485.650891597794	577.582980134026	967.542325424355	931.839313361363	710.431877494289	947.808096225762	956.456474793119	437.104208272142	1014.282132999314	733.247571147498	670.297914574468	934.239763284056	616.250500460924	718.234517665349	1015.204959226251	571.121219892723	637.553457024439	1016.223236713444	475.708666696049	639.133876481467	1025.057325697621	762.431715458507	465.760011966879	973.766078844811	637.132870563275	388.986338591207	1070.780341178788	570.384590530059	455.439101729285	1081.159404072398	483.859244230573	444.645140169107	1021.429148162584	418.448423253702	430.147993301076	886.296901105429	358.423509384851	383.268065583007	898.739012865302	224.252214224531	426.580379761659	971.915660226857	389.661670432655	637.279633030220	883.568688075126	293.814927188581	689.309159648109	912.016617491179	198.599876013917	620.954529285216	758.213037448816	45.444680100956	575.858944571693	929.106433729584	97.028101075938	624.154093773181	836.917195275705	37.755615420894	655.715872791115	1045.338173249252	40.797469520196	659.840445348456	726.308733085871	116.858600869029	467.796687105947	785.523349648975	97.885203925897	378.485755784915	887.659361646563	127.369404200269	395.706050243534	985.873326947251	42.511075943305	345.971126089146	905.625155992953	1068.419070795877	304.322810752610	1024.685959995028	837.142335095112	302.387451853907	956.715596347514	1079.878911572138	881.845638288247	1114.352993128718	876.008445368002	921.275840199846	
54	37.475928571429	731.096001840312	989.686768437775	600.085607177194	913.317176164688	1420.397825293614	416.981718694576	1014.907823716436	1350.527304749215	578.134499850222	932.678274495322	1424.352825743308	752.217391231168	900.339813270136	1483.048781684764	576.744635512012	966.691744947306	929.614801631679	711.233902182869	944.026390460291	954.001113057160	438.068931237463	1014.499632403706	731.668588025691	670.540303005011	935.779186284889	613.850988382368	718.468501883396	1016.835704039433	569.448402742980	637.324260807043	1018.255582997447	473.160406181982	638.659321184562	1024.021442937363	762.660814493667	466.745369408706	975.326389192088	636.954904439555	389.412685566708	1073.454595725007	571.942586312942	455.873958663499	1085.975656787637	485.949975679087	444.614320618305	1028.336287452554	419.200277589270	429.620618149336	895.206877253213	354.869062483944	382.653487649163	912.348057216110	220.883800784457	425.208864577193	972.218719815859	387.275342290914	636.770626822631	882.558046369628	292.735303353330	689.178325298390	908.701162698498	197.244889715721	620.490052313410	752.514735606687	45.596619661496	575.858366937786	923.359850711655	96.889433143505	623.971412799010	831.148737632913	37.792825867868	655.682725613869	1039.569706237428	40.552797567319	659.907968512442	743.796071061106	107.411451904829	466.259562153358	803.377730663020	90.912271470425	376.696058181044	904.491302435289	123.787854324130	393.859074792880	1005.454592127687	42.685740649286	343.447870650809	892.104017872208	1064.420041804674	306.250944069583	992.513218194229	823.932110109105	303.960992935622	968.796947651732	1079.506975575430	881.705865425983	1139.449585489838	885.749396168200	917.451919279328	
55	37.495285714286	729.238704420835	986.993854478049	602.913075485151	908.857301660122	1417.116978521154	416.234615696336	1012.702095688023	1348.027560659230	576.276221060654	933.074262777185	1422.695379775560	751.248370802673	898.385851184976	1480.649805109807	575.833535960663	965.966919210445	927.557534051805	711.667159253836	940.285246630824	951.704788774819	438.712925818366	1014.431561418618	730.088596734597	670.461566541752	936.924593936123	611.614270695537	718.540874018215	1017.900731866950	567.803866364458	636.853587867531	1019.580988515495	470.761470442471	637.976255387615	1022.812515145500	762.953680875036	467.407475940140	976.590643911290	636.927715347068	389.469021200593	1075.744316563837	573.576979236332	455.917598354070	1090.352366620450	488.220166991676	444.182058228010	1034.906315056013	420.188221328011	428.715081883457	904.020090057524	351.456906534142	381.640805493479	926.003980406883	217.860119593356	423.483521500025	971.980756454440	385.033194212972	636.151526147062	881.155317638510	291.710540735151	689.011895463673	905.158331336247	195.982497536092	620.039536694862	746.814246727368	45.731540282674	575.911518294136	917.584206946261	96.725632170594	623.774688251258	825.370718229110	37.821244425389	655.676708802794	1033.787702805413	40.342329623992	659.964920116875	761.667858562145	98.341481974240	464.364459938379	821.555869710715	84.298060429965	374.570965516333	921.512556882208	120.593197565390	391.686449647901	1025.136580605829	43.318626089445	340.671679832721	877.856615442406	1061.230873413222	307.875820215319	960.348666161250	813.555559249023	305.887050647056	981.131940617010	1079.753385718986	881.170810322685	1164.471395312435	897.196249424632	912.620047411320	
56	37.514642857143	727.560165705293	984.691548006222	605.518297715754	904.145929299001	1414.349995676657	415.430591418251	1010.432323067382	1345.958295936641	574.148382501817	933.575870554032	1421.349887987944	750.072703263279	896.330087893398	1478.620743761231	574.859124332103	965.390963317317	925.807865352954	711.697703289079	936.657366662017	949.750310128649	439.000765761484	1013.998850958035	728.593844886105	670.044474952000	937.513873062970	609.670076091345	718.464954148863	1018.189039226705	566.262276888021	636.153747349023	1019.951787808901	468.617219644817	637.121144976796	1021.442412127570	763.427315893306	467.726925072053	977.511678967955	637.155480170893	389.151826315022	1077.589112121315	575.353458463115	455.551806825046	1094.202054270224	490.742996380813	443.352870821168	1041.036346409273	421.506312143054	427.464108930953	912.654489881476	348.320329848069	380.242705040982	939.571458102709	215.333879764930	421.461128223756	970.996850951709	383.046475617464	635.458135500042	879.198846996207	290.802554347951	688.836851661610	901.300016755406	194.881576706596	619.632336206657	741.101091093526	45.848025796481	576.020810790357	911.785507957901	96.552131096900	623.584529056992	819.580307959206	37.842519927868	655.700345357427	1027.990471535398	40.167198381778	660.009158064589	779.760236049657	89.875589358328	462.159794309913	839.923104402585	78.223315993156	372.183495953575	938.588272050552	117.936416435560	389.272255432973	1044.767186631765	44.519986840771	337.791731300759	862.879350904668	1059.066145376510	309.259915576178	928.602001464558	806.069015543243	308.166671206216	993.642665705008	1080.790201445193	880.233714549845	1189.099108342775	910.429269788697	906.839438337649	
